<svg width="32" height="32" viewBox="0 0 32 32" fill="none" xmlns="http://www.w3.org/2000/svg">
  <rect width="32" height="32" rx="5" fill="#020202"/>
  <svg x="0" y="8.38" width="32" height="15.24" viewBox="0 0 378 180">
    <path d="M188.995 0C197.839 9.9711e-05 204.914 7.0764 204.914 15.5928V89.5234C204.914 139.075 163.842 179.63 113.156 179.63C84.6845 179.63 58.3118 166.509 41.2083 145.324L37.7424 141.03L27.1575 151.45C20.9727 157.539 10.7905 157.539 4.60571 151.45C-1.53508 145.405 -1.5353 135.515 4.60571 129.47L30.6252 103.856C34.4313 100.11 40.0194 98.4774 45.4094 99.6465C50.7324 100.817 55.1085 104.605 56.9446 109.589C65.5184 132.915 88.1898 148.516 113.304 148.517C146.223 148.517 173.151 122.12 173.151 89.5234V31.1855H114.487C105.643 31.1853 98.5686 24.1091 98.5686 15.5928C98.5687 7.07648 105.643 0.000240117 114.487 0H188.995Z" fill="white"/>
    <path d="M111.938 69.5312C121.395 69.5312 129.062 77.1975 129.062 86.6543C129.062 96.1111 121.395 103.778 111.938 103.778C102.481 103.778 94.8149 96.1109 94.8147 86.6543C94.8149 77.1977 102.481 69.5316 111.938 69.5312Z" fill="white"/>
    <path d="M332.17 99.6084C337.465 98.4444 343.076 100.054 346.982 103.842L372.975 129.421C379.115 135.463 379.115 145.346 372.975 151.389C366.79 157.475 356.607 157.475 350.422 151.389L339.833 140.967L336.368 145.271C319.268 166.511 292.826 179.63 264.35 179.63C236.781 179.63 212.042 167.6 195.23 148.629C202.367 139.066 207.822 128.214 211.159 116.499C221.132 135.486 241.269 148.46 264.35 148.46C289.472 148.46 312.065 132.855 320.636 109.542C322.479 104.547 326.789 100.779 332.16 99.6104L332.17 99.6084ZM188.996 0C197.839 0.000211629 204.914 7.07646 204.915 15.5928V31.1699H204.503V89.4873C204.503 91.3046 204.588 93.1027 204.751 94.8779C203.739 111.707 197.991 127.333 188.789 140.466C179.682 127.461 173.956 112.008 172.86 95.3545C173.052 93.4363 173.151 91.4912 173.151 89.5234V31.1855H172.667V15.585C172.667 7.07471 179.74 0.000130172 188.585 0H188.996ZM263.093 0C271.939 0 279.012 7.07463 279.012 15.585C279.012 24.0953 271.939 31.1699 263.093 31.1699H214.915V15.5928C214.915 9.71233 212.902 4.31069 209.536 0H263.093Z" fill="white"/>
    <path d="M263.642 69.5312C273.099 69.5314 280.766 77.1975 280.766 86.6543C280.766 96.111 273.099 103.778 263.642 103.778C254.185 103.778 246.519 96.111 246.519 86.6543C246.519 77.1976 254.185 69.5315 263.642 69.5312Z" fill="white"/>
  </svg>
</svg>
